PathFileType	3	(X/Y/Z)	C:\Users\koon_\Desktop\
DataRate	CameraRate	NumFrames	NumMarkers	Units	OrigDataRate	OrigDataStartFrame	OrigNumFrames
100.0	100.0	10	27	mm	100.0	2242	4482	
Frame#	Time	get:LFHD			get:RFHD			get:LBHD			get:RBHD			get:C7			get:T10			get:CLAV			get:STRN			get:RBAK			get:LSHO			get:LUPA			get:LELB			get:LFRA			get:LWRA			get:LWRB			get:LFIN			get:RSHO			get:RUPA			get:RELB			get:RFRA			get:RWRA			get:RWRB			get:RFIN			get:LASI			get:RASI			get:LPSI			get:RPSI			
		X1	Y1	Z1	X2	Y2	Z2	X3	Y3	Z3	X4	Y4	Z4	X5	Y5	Z5	X6	Y6	Z6	X7	Y7	Z7	X8	Y8	Z8	X9	Y9	Z9	X10	Y10	Z10	X11	Y11	Z11	X12	Y12	Z12	X13	Y13	Z13	X14	Y14	Z14	X15	Y15	Z15	X16	Y16	Z16	X17	Y17	Z17	X18	Y18	Z18	X19	Y19	Z19	X20	Y20	Z20	X21	Y21	Z21	X22	Y22	Z22	X23	Y23	Z23	X24	Y24	Z24	X25	Y25	Z25	X26	Y26	Z26	X27	Y27	Z27	
2242	22.41	85.52021	1572.9763	-88.417526	-71.025803	1565.6051	-85.233887	78.069038	1561.8097	-213.05229	-48.486164	1566.1138	-230.25427	8.0828447	1375.4272	-236.19003	-0.67592317	1118.5266	-265.60669	11.508115	1294.1031	-51.584949	16.355886	1111.2322	-5.8572531	-89.782028	1311.0514	-255.69565	163.25217	1363.5468	-138.93979	231.52744	1244.8529	-80.678207	249.14977	1094.9958	5.0755277	160.10217	1179.6058	49.757027	81.301888	1211.1765	88.496536	108.54861	1184.8865	147.64375	25.267344	1242.6945	170.71188	-132.10965	1372.6882	-135.50299	-224.53271	1246.4679	-1.8585181	-262.78198	1161.0575	58.047215	-182.62627	1224.2074	85.441666	-61.994415	1259.1879	165.6535	-106.09203	1248.6049	221.95839	-36.57222	1311.807	225.98882	138.14201	929.56616	-59.428562	-140.70955	916.29224	-51.81004	48.672924	955.09406	-259.83075	-62.552841	945.1933	-255.54892
2243	22.42	85.523201	1572.869	-88.007011	-71.037483	1565.5396	-85.069382	78.329918	1561.7412	-212.57635	-48.198765	1566.1298	-230.00479	8.4814529	1375.5148	-236.17397	-0.20022906	1118.5446	-265.66898	11.289094	1294.0841	-51.666656	16.006237	1111.1807	-5.9526095	-89.317993	1311.084	-256.06079	163.5157	1363.3912	-138.49918	231.67561	1244.1392	-80.756233	249.24739	1094.1133	4.5490298	161.97646	1179.8163	50.517818	84.448746	1212.7455	90.853523	111.63562	1185.7068	149.03014	29.123714	1244.6128	173.2534	-132.1994	1372.604	-135.93246	-225.12292	1245.5786	-3.1550791	-263.24261	1159.574	56.110909	-184.09921	1223.7533	83.897896	-64.463989	1260.4154	164.46729	-108.57989	1249.3014	220.58244	-40.050163	1313.5836	224.85403	138.11195	929.55896	-59.278545	-140.7599	916.38318	-52.069008	48.958012	955.09918	-259.83533	-62.252506	945.17859	-255.75075
2244	22.43	85.542725	1572.749	-87.61956	-71.007584	1565.5184	-84.879768	78.576698	1561.7219	-212.12592	-47.921654	1566.1952	-229.83025	8.8269691	1375.524	-236.11223	0.25620434	1118.5266	-265.74188	11.119345	1294.098	-51.490192	15.659655	1111.1838	-5.9322677	-88.861626	1311.0909	-256.37048	163.71814	1363.2977	-138.18405	231.82187	1243.6084	-80.773827	249.54347	1093.5675	4.232667	163.9485	1180.3259	51.273891	86.702126	1214.205	92.262535	114.82093	1186.7278	150.42599	33.545677	1247.0409	175.78125	-132.27324	1372.5605	-136.41579	-225.73337	1244.8495	-4.3466897	-263.73093	1158.1698	54.216793	-185.66692	1223.5065	82.285233	-67.096245	1262.0452	163.17741	-111.1592	1250.351	219.13818	-43.603504	1315.7332	223.39923	138.08183	929.54242	-59.107834	-140.76295	916.42926	-52.401176	49.292927	955.11249	-259.84229	-61.910088	945.19958	-256.00882
2245	22.44	85.542236	1572.6587	-87.157722	-70.966492	1565.4733	-84.660408	78.777763	1561.6927	-211.7126	-47.701878	1566.2339	-229.53229	9.1635695	1375.6022	-236.15402	0.74725884	1118.6157	-265.91025	10.882484	1294.1681	-51.47477	15.31215	1111.2152	-5.9150171	-88.416527	1311.1432	-256.67743	163.88768	1363.2355	-137.84714	231.93738	1243.3114	-80.651726	250.03058	1093.3629	4.2859731	165.97185	1181.0714	52.293129	88.937134	1215.8353	93.887177	117.96529	1188.1844	152.05507	38.241722	1249.8069	178.16512	-132.34874	1372.5723	-136.8669	-226.38118	1244.2382	-5.584857	-264.31033	1156.9259	52.387222	-187.41142	1223.4524	80.658493	-69.732483	1263.9031	161.68124	-113.78521	1251.8064	217.52512	-47.346218	1318.2937	221.79832	138.06076	929.51495	-59.035641	-140.85013	916.49127	-52.745937	49.620033	955.1062	-259.87286	-61.595562	945.26636	-256.27966
2246	22.45	85.62944	1572.5555	-86.69548	-70.911987	1565.465	-84.434105	79.000511	1561.7025	-211.3008	-47.46526	1566.3625	-229.38602	9.4843521	1375.6539	-236.16455	1.1112411	1118.5182	-265.81827	10.668696	1294.2207	-51.46764	15.020558	1111.2512	-5.9936385	-88.014572	1311.2393	-257.09616	164.05463	1363.1998	-137.58327	232.10716	1243.2678	-80.394203	250.63667	1093.5049	4.6461096	168.07941	1182.2065	53.281506	91.850632	1217.9469	95.725273	121.13358	1189.9084	153.59029	42.931549	1252.9753	180.69095	-132.40266	1372.6125	-137.26546	-227.02541	1243.7522	-6.8073473	-264.94867	1155.8315	50.595871	-189.14621	1223.5487	79.019508	-72.580238	1266.0955	159.84456	-116.49274	1253.6482	215.7141	-51.148663	1321.2596	219.84294	137.9935	929.5332	-58.94313	-140.88933	916.50623	-53.136547	49.912689	955.10077	-259.91803	-61.238449	945.435	-256.96484
2247	22.46	85.724197	1572.4806	-86.265106	-70.873558	1565.4414	-84.180862	79.229439	1561.7417	-210.94466	-47.0802	1566.6837	-229.25821	9.8110857	1375.7177	-236.14644	1.4703902	1118.5447	-265.89304	10.451195	1294.2792	-51.482895	14.729901	1111.2595	-6.0691748	-87.62426	1311.3212	-257.41425	164.17146	1363.243	-137.29178	232.29567	1243.4504	-79.969032	251.34834	1094.021	5.4191852	170.17081	1183.4866	54.46516	94.838585	1220.5297	97.55368	124.2404	1192.0009	155.18077	48.162987	1256.5776	183.44679	-132.43813	1372.6471	-137.65457	-227.69435	1243.3124	-7.8708615	-265.62454	1154.9325	48.918667	-190.98973	1223.7745	77.138428	-75.357597	1268.5973	157.914	-119.12986	1255.7991	213.80913	-54.913162	1324.614	217.65715	137.91803	929.51123	-58.860588	-141.00766	916.54602	-53.547291	50.243511	955.13544	-259.97159	-60.896217	945.4765	-257.40472
2248	22.47	85.786629	1572.4296	-85.841698	-70.828087	1565.4236	-83.941231	79.395668	1561.7936	-210.55055	-46.981983	1566.7676	-228.99347	10.063678	1375.7825	-236.22577	1.8395442	1118.6211	-266.10593	10.25197	1294.3644	-51.533642	14.383518	1111.3516	-6.0476727	-87.269333	1311.3571	-257.66989	164.22188	1363.3402	-137.05876	232.52408	1243.811	-79.458351	252.12979	1094.8654	6.3088794	172.21127	1185.1783	55.924652	97.867722	1223.1816	99.601196	127.24897	1194.4835	156.87938	52.813122	1260.3589	185.90739	-132.49147	1372.6995	-138.07954	-228.40683	1242.973	-8.8508873	-266.29175	1154.1971	47.363361	-192.81517	1224.1731	75.21949	-78.142159	1271.4302	155.85336	-121.77419	1258.2814	211.77417	-58.727242	1328.2681	215.30119	137.87415	929.51495	-58.793995	-141.04716	916.59949	-53.984833	50.552921	955.11749	-260.04459	-60.611305	945.54083	-257.80145
2249	22.48	85.822548	1572.3969	-85.450905	-70.809395	1565.3834	-83.812553	79.576218	1561.8694	-210.13112	-46.766186	1566.8671	-228.8006	10.332567	1375.807	-236.22467	2.1889014	1118.7046	-266.22305	10.07424	1294.4771	-51.556587	14.147748	1111.3915	-6.221827	-86.909866	1311.4099	-257.9559	164.22423	1363.5154	-136.79991	232.70815	1244.4016	-78.776062	253.02136	1096.027	7.6902242	174.20963	1187.1792	57.300232	101.02952	1226.2902	101.39847	130.2338	1197.3591	158.74657	57.37923	1264.5759	188.30325	-132.5199	1372.7709	-138.53876	-229.02145	1242.7621	-9.8619785	-266.93549	1153.73	45.971752	-194.54485	1224.6613	73.269783	-81.069077	1274.4624	153.61156	-124.36259	1261.0558	209.73447	-62.794193	1332.2383	212.83534	137.79515	929.51306	-58.749985	-141.10959	916.66089	-54.421642	50.788521	955.14679	-260.11447	-60.322147	945.6004	-258.24072
2250	22.49	85.871117	1572.3831	-85.129211	-70.787262	1565.3549	-83.596817	79.764465	1561.9471	-209.80333	-46.584164	1566.9484	-228.59781	10.609252	1375.8425	-236.26076	2.5351617	1118.7676	-266.27429	9.9071007	1294.6156	-51.588974	13.86254	1111.4882	-6.175281	-86.563904	1311.5077	-258.33008	164.15311	1363.7297	-136.4787	232.85098	1245.2229	-77.920647	253.97585	1097.4324	9.1716652	176.18306	1189.4395	58.716679	103.91104	1229.5884	103.44426	133.16821	1200.6342	160.52908	61.833977	1269.0979	190.547	-132.56857	1372.8624	-138.97166	-229.58023	1242.6084	-10.857433	-267.58218	1153.2816	44.55022	-196.18486	1225.3806	71.246437	-83.918404	1277.8258	151.15282	-126.87339	1264.1615	207.47786	-66.35173	1336.4597	209.97131	137.75102	929.52277	-58.737835	-141.20122	916.71082	-54.914402	51.039116	955.21698	-260.21573	-60.066525	945.60577	-258.55151
2251	22.5	85.872154	1572.3927	-84.810959	-70.793465	1565.3788	-83.467087	79.906471	1562.0249	-209.48386	-46.398426	1567.0708	-228.40767	10.912172	1375.9352	-236.3506	2.871541	1118.8846	-266.42865	9.630578	1294.7411	-51.601135	13.626916	1111.6165	-6.3483138	-86.231575	1311.5739	-258.63089	164.00595	1363.9688	-136.1022	233.01813	1246.1921	-76.972862	254.8922	1099.0394	10.987194	178.15996	1191.8944	60.334339	106.66068	1233.0198	105.42229	136.10165	1204.2428	162.26677	66.176743	1273.8636	192.45299	-132.58063	1372.965	-139.50102	-230.22337	1242.5768	-11.819801	-268.12991	1153.0408	43.313038	-197.86777	1226.2733	69.23632	-86.659203	1281.4119	148.59787	-129.27568	1267.4894	205.12497	-69.917465	1340.9119	207.11111	137.68346	929.53156	-58.755814	-141.25027	916.77899	-55.399189	51.276859	955.2749	-260.31873	-59.846653	945.64063	-258.79965
